<?xml version="1.0" encoding="UTF-8"?>
<svg version="1.1" xmlns="http://www.w3.org/2000/svg" width="512" height="512">
<path d="M0 0 C1.55173903 -0.00542983 3.1034729 -0.0125573 4.65519714 -0.02124023 C8.84328958 -0.03937434 13.03098499 -0.03244742 17.21908379 -0.01972389 C21.61729825 -0.00954451 26.01548039 -0.01900321 30.41369629 -0.02526855 C37.79750627 -0.03253065 45.18115582 -0.02299513 52.56494141 -0.00390625 C61.08223214 0.01785976 69.59913977 0.01080737 78.11642122 -0.01121187 C85.45008496 -0.02940698 92.78363387 -0.03190416 100.11731291 -0.0214572 C104.48825064 -0.01524479 108.85900874 -0.01432419 113.22993469 -0.02760315 C117.34072473 -0.03922113 121.45102438 -0.03102844 125.56176186 -0.00802612 C127.0636902 -0.00277059 128.56566034 -0.00419828 130.06757164 -0.01307678 C141.92545376 -0.07667194 151.07045672 1.79322572 160.38476562 9.45898438 C169.13477173 18.27591213 170.80371572 28.22162948 170.86523438 40.14257812 C170.89810547 41.274375 170.93097656 42.40617187 170.96484375 43.57226562 C171.01869077 51.83533578 171.01869077 51.83533578 168.02539062 55.29101562 C165.42773438 56.51757812 165.42773438 56.51757812 163.42773438 56.51757812 C163.42773438 62.78757813 163.42773438 69.05757813 163.42773438 75.51757812 C165.07773437 75.84757812 166.72773438 76.17757812 168.42773438 76.51757812 C171.5532557 81.20586011 170.7963986 86.0647839 170.80273438 91.58007812 C170.82722656 92.67513672 170.85171875 93.77019531 170.87695312 94.8984375 C170.91729206 106.18661656 167.85916213 114.05738504 160.06835938 122.24804688 C153.04575294 128.28374856 144.81512349 131.67491612 135.56445312 131.61523438 C134.67822266 131.61201172 133.79199219 131.60878906 132.87890625 131.60546875 C131.96689453 131.59708984 131.05488281 131.58871094 130.11523438 131.58007812 C129.18388672 131.57556641 128.25253906 131.57105469 127.29296875 131.56640625 C125.00449065 131.55467046 122.7161463 131.53825176 120.42773438 131.51757812 C120.46439209 132.56623047 120.5010498 133.61488281 120.53881836 134.6953125 C120.66629354 138.61610473 120.74615448 142.53671724 120.81225586 146.45898438 C120.8472848 148.15070476 120.89492582 149.84221586 120.95581055 151.53320312 C121.51226533 167.39450239 121.51226533 167.39450239 117.61132812 172.03710938 C116.25787871 173.24493991 114.85787822 174.40161732 113.42773438 175.51757812 C111.60067058 177.12844249 109.78088884 178.74758802 107.96679688 180.37304688 C107.00016113 181.23333496 106.03352539 182.09362305 105.03759766 182.97998047 C93.95259214 192.81060896 93.95259214 192.81060896 89.53857422 206.55786133 C89.55887664 210.62219534 89.84336415 214.4928311 90.42773438 218.51757812 C91.66007812 218.47117188 92.89242188 218.42476562 94.16210938 218.37695312 C107.22181412 218.02938155 118.08900469 218.77179751 128.46289062 227.60742188 C136.91137648 235.82076101 140.79829218 244.65616306 140.99023438 256.39257812 C140.87584267 267.71618935 137.46975467 276.40358332 129.52539062 284.61523438 C117.95380963 295.10938697 105.24637872 294.9283619 90.42773438 294.51757812 C88.87454777 301.83974355 88.4778325 308.49888105 91.42773438 315.51757812 C98.17000434 325.28394487 107.92905089 333.23429554 116.75976562 341.0534668 C119.42773438 343.51757813 119.42773438 343.51757813 120.42773438 345.51757812 C120.51448975 348.21650994 120.54331335 350.88927043 120.52539062 353.58789062 C120.5232682 354.78223221 120.5232682 354.78223221 120.52110291 356.0007019 C120.51549782 358.54803193 120.50294451 361.09527459 120.49023438 363.64257812 C120.48522003 365.36783727 120.48065701 367.0930978 120.4765625 368.81835938 C120.46552675 373.05146604 120.44825874 377.28450726 120.42773438 381.51757812 C121.00628174 381.49663086 121.5848291 381.47568359 122.1809082 381.45410156 C136.93588026 380.99021029 148.9783399 381.07472382 160.42773438 391.51757812 C167.46491713 398.1628992 170.56269391 405.83107362 170.95898438 415.47851562 C170.9694896 417.94986942 170.95872098 420.42139627 170.92773438 422.89257812 C170.94320312 424.14941406 170.95867188 425.40625 170.97460938 426.70117188 C170.966875 428.50908203 170.966875 428.50908203 170.95898438 430.35351562 C170.95447266 431.44196777 170.94996094 432.53041992 170.9453125 433.65185547 C170.30903543 437.17478954 169.26529816 438.39069158 166.42773438 440.51757812 C165.43773437 440.51757812 164.44773437 440.51757812 163.42773438 440.51757812 C163.42773438 446.78757812 163.42773438 453.05757813 163.42773438 459.51757812 C165.07773437 460.17757813 166.72773438 460.83757812 168.42773438 461.51757812 C171.80299875 464.8928425 170.7967548 469.43722081 170.80273438 474.01757812 C170.82722656 474.9740625 170.85171875 475.93054688 170.87695312 476.91601562 C170.91844077 487.12197699 167.5987829 496.12392499 160.42773438 503.51757812 C150.26705239 511.83086339 140.77173356 512.96384352 128.08251953 512.92163086 C126.53107717 512.92734011 124.979639 512.93430651 123.4282074 512.94242859 C119.23180154 512.96031513 115.03560531 512.95919999 110.83917284 512.9534862 C107.32793001 512.95038742 103.81672704 512.95649455 100.3054899 512.96252495 C92.01742804 512.97655415 83.72946928 512.97502264 75.44140625 512.96362305 C66.90940042 512.95214678 58.37770911 512.96621283 49.84574473 512.99301952 C42.50363957 513.0152186 35.16163283 513.02180434 27.81949651 513.01594311 C23.44180922 513.01258197 19.06432345 513.01493213 14.68666458 513.03219414 C10.56771376 513.04772822 6.44922659 513.04363672 2.33029366 513.02488899 C0.8251345 513.02122072 -0.68005949 513.0242598 -2.18518639 513.03477478 C-14.88718218 513.11668599 -23.91405414 511.07765926 -33.30273438 502.16210938 C-39.53159383 494.90404079 -42.73767916 486.73562358 -42.63476562 477.26757812 C-42.62574219 476.18992187 -42.61671875 475.11226563 -42.60742188 474.00195312 C-42.59001953 472.7721875 -42.59001953 472.7721875 -42.57226562 471.51757812 C-43.22825619 471.5212653 -43.88424675 471.52495247 -44.56011581 471.52875137 C-60.51751086 471.61706629 -76.47482098 471.68327 -92.43239975 471.72482681 C-100.14935835 471.74545726 -107.86615388 471.77358686 -115.58300781 471.81933594 C-122.30857077 471.8591892 -129.03401563 471.88500744 -135.75969338 471.8939321 C-139.32136671 471.8991495 -142.88270218 471.91142166 -146.44426727 471.94049835 C-150.41896424 471.97268503 -154.39332985 471.97353849 -158.36816406 471.97167969 C-159.55067749 471.98606079 -160.73319092 472.00044189 -161.95153809 472.01525879 C-163.03404846 472.00976013 -164.11655884 472.00426147 -165.23187256 471.99859619 C-166.1721014 472.00228336 -167.11233025 472.00597054 -168.08105087 472.00976944 C-171.3662181 471.36071629 -172.5526845 470.14526443 -174.57226562 467.51757812 C-174.92136612 464.62792692 -175.04042183 462.13165102 -174.96289062 459.25195312 C-174.95723083 458.4585553 -174.95157104 457.66515747 -174.94573975 456.84771729 C-174.92339709 454.32038339 -174.87320738 451.79448147 -174.82226562 449.26757812 C-174.80219777 447.55145281 -174.78394749 445.83530521 -174.76757812 444.11914062 C-174.72353958 439.91807032 -174.65452889 435.71806678 -174.57226562 431.51757812 C-176.00880493 431.54585693 -176.00880493 431.54585693 -177.47436523 431.57470703 C-178.7325708 431.58937012 -179.99077637 431.6040332 -181.28710938 431.61914062 C-183.15677368 431.64741943 -183.15677368 431.64741943 -185.06420898 431.67626953 C-191.42938038 431.3883329 -194.92567108 429.12758168 -199.38476562 424.76757812 C-203.73831013 418.29945486 -205.20420297 411.24643929 -206.63476562 403.70507812 C-206.95278047 402.03071081 -207.27675717 400.357462 -207.60742188 398.68554688 C-207.74543213 397.9561792 -207.88344238 397.22681152 -208.02563477 396.4753418 C-208.81023318 393.66529503 -209.91167324 391.90169145 -212.44824219 390.42675781 C-214.90009462 389.35783897 -217.35489165 388.30026081 -219.82226562 387.26757812 C-220.66917969 386.89117187 -221.51609375 386.51476562 -222.38867188 386.12695312 C-228.82901378 383.39541252 -228.82901378 383.39541252 -235.57226562 384.51757812 C-238.56361134 386.16840682 -241.37742639 388.02867754 -244.19726562 389.95507812 C-245.68829583 390.95550303 -247.18044661 391.95426028 -248.67382812 392.95117188 C-249.32689941 393.39517334 -249.9799707 393.8391748 -250.65283203 394.29663086 C-255.04250584 397.08889221 -258.05333991 397.8350571 -263.32226562 397.89257812 C-264.49273437 397.9209375 -265.66320312 397.94929688 -266.86914062 397.97851562 C-276.89962198 396.72999579 -282.88302188 389.83097144 -289.63720703 382.97412109 C-291.31842294 381.27146981 -293.01994649 379.59124895 -294.72460938 377.91210938 C-301.9011438 370.75413825 -308.19604731 364.2398002 -308.57226562 353.51757812 C-307.73882867 346.80723845 -305.36845635 341.82770631 -301.63476562 336.26757812 C-300.7504743 334.90831809 -299.86635556 333.54894576 -298.98242188 332.18945312 C-297.59430457 330.05455358 -296.18240095 327.97614444 -294.69335938 325.90820312 C-292.63671917 321.52261494 -294.46925291 317.66191526 -295.95507812 313.31835938 C-296.5288041 311.81956607 -297.1096911 310.3234967 -297.69726562 308.83007812 C-297.96796875 308.07146484 -298.23867188 307.31285156 -298.51757812 306.53125 C-300.08439009 302.56875455 -300.98184587 300.87387852 -304.72460938 298.61523438 C-309.82016964 296.93410605 -315.17718183 296.11731284 -320.45703125 295.23242188 C-327.88054923 293.83266103 -333.93888492 291.08674707 -338.50976562 284.89257812 C-340.81216098 281.12502209 -341.69260456 278.58684579 -341.74926758 274.26489258 C-341.76210281 273.41002762 -341.77493805 272.55516266 -341.78816223 271.6743927 C-341.79554916 270.7525267 -341.8029361 269.83066071 -341.81054688 268.88085938 C-341.81861862 267.92745163 -341.82669037 266.97404388 -341.83500671 265.991745 C-341.84884012 263.97181004 -341.8595656 261.95185178 -341.86743164 259.93188477 C-341.88460355 256.85907978 -341.92849172 253.78736236 -341.97265625 250.71484375 C-341.98278726 248.74935685 -341.99130209 246.78386082 -341.99804688 244.81835938 C-342.01555496 243.90661453 -342.03306305 242.99486969 -342.05110168 242.05549622 C-342.02556625 234.45635299 -340.16900731 229.17333667 -334.82226562 223.70507812 C-328.35414236 219.35153362 -321.30112679 217.88564078 -313.75976562 216.45507812 C-312.08539831 216.13706328 -310.4121495 215.81308658 -308.74023438 215.48242188 C-308.0108667 215.34441162 -307.28149902 215.20640137 -306.5300293 215.06420898 C-304.27535507 214.5438918 -304.27535507 214.5438918 -301.57226562 212.51757812 C-299.8497831 209.38526602 -298.63348216 206.02760716 -297.32226562 202.70507812 C-296.94585937 201.80208984 -296.56945312 200.89910156 -296.18164062 199.96875 C-295.83101563 199.09154297 -295.48039062 198.21433594 -295.11914062 197.31054688 C-294.7978418 196.51156982 -294.47654297 195.71259277 -294.14550781 194.8894043 C-293.26994768 191.26671832 -293.94046717 188.71263952 -295.66381836 185.45288086 C-296.10669189 184.79231689 -296.54956543 184.13175293 -297.00585938 183.45117188 C-297.48990234 182.71833984 -297.97394531 181.98550781 -298.47265625 181.23046875 C-298.97990234 180.47958984 -299.48714844 179.72871094 -300.00976562 178.95507812 C-301.01026205 177.45497401 -302.00902153 175.95370966 -303.00585938 174.45117188 C-303.44986084 173.79173584 -303.8938623 173.1322998 -304.35131836 172.45288086 C-308.06406755 166.56786529 -309.18311538 160.87989637 -308.00976562 154.01757812 C-305.50653115 144.85590504 -297.68611595 138.25863363 -291.15966797 131.734375 C-289.69616305 130.26647224 -288.24945809 128.78324989 -286.80273438 127.29882812 C-279.94946984 120.35866261 -274.06680949 114.98639159 -263.82226562 114.83007812 C-255.92538511 115.06605748 -250.91190369 118.06524774 -244.57226562 122.51757812 C-242.6229028 123.86399255 -240.66482902 125.19790335 -238.69726562 126.51757812 C-237.85421875 127.11570312 -237.01117188 127.71382813 -236.14257812 128.33007812 C-231.62520724 130.41713093 -227.8466887 128.66474712 -223.37304688 127.13476562 C-221.87425357 126.56103965 -220.3781842 125.98015265 -218.88476562 125.39257812 C-218.12615234 125.121875 -217.36753906 124.85117188 -216.5859375 124.57226562 C-212.62344205 123.00545366 -210.92856602 122.10799788 -208.66992188 118.36523438 C-206.98879355 113.26967411 -206.17200034 107.91266192 -205.28710938 102.6328125 C-203.88734853 95.20929452 -201.14143457 89.15095883 -194.94726562 84.58007812 C-190.10992637 81.62392636 -186.977575 81.40376795 -181.38476562 81.45507812 C-180.11246094 81.46410156 -178.84015625 81.473125 -177.52929688 81.48242188 C-176.55347656 81.49402344 -175.57765625 81.505625 -174.57226562 81.51757812 C-174.59321289 80.44797852 -174.61416016 79.37837891 -174.63574219 78.27636719 C-174.70821188 74.3031964 -174.75409026 70.33008387 -174.79199219 66.35644531 C-174.8120919 64.63759534 -174.83937651 62.9188136 -174.87402344 61.20019531 C-174.92261596 58.72769323 -174.94524997 56.25609602 -174.96289062 53.78320312 C-174.98353577 53.01639221 -175.00418091 52.2495813 -175.02545166 51.45953369 C-175.02685968 48.10196753 -174.95774998 46.01913359 -172.87765884 43.31271744 C-170.07757061 41.13237422 -168.74605551 41.02277895 -165.23187256 41.03656006 C-164.14936218 41.0310614 -163.06685181 41.02556274 -161.95153809 41.01989746 C-160.76902466 41.03427856 -159.58651123 41.04865967 -158.36816406 41.06347656 C-157.11912292 41.06289246 -155.87008179 41.06230835 -154.58319092 41.06170654 C-151.16167025 41.0640154 -147.7411157 41.0840704 -144.31976604 41.11200237 C-140.74301184 41.13701268 -137.16624466 41.13935772 -133.5894165 41.144104 C-126.81789271 41.15653494 -120.04662732 41.18935791 -113.27521729 41.22950196 C-105.56551332 41.27421619 -97.85579698 41.2962058 -90.14599562 41.3162837 C-74.28793598 41.35809062 -58.43013413 41.4284447 -42.57226562 41.51757812 C-42.60054443 40.3182666 -42.60054443 40.3182666 -42.62939453 39.09472656 C-42.64405762 38.03286133 -42.6587207 36.97099609 -42.67382812 35.87695312 C-42.70210693 34.3063916 -42.70210693 34.3063916 -42.73095703 32.70410156 C-42.21990503 22.44217733 -36.59460651 14.12924564 -29.32226562 7.26757812 C-20.38574864 0.27895294 -10.91710901 -0.06453617 0 0 Z M-158.57226562 56.51757812 C-158.57226562 64.76757812 -158.57226562 73.01757812 -158.57226562 81.51757812 C-155.35476562 81.64132813 -155.35476562 81.64132813 -152.07226562 81.76757812 C-144.62736581 82.30902538 -139.63564831 83.53698957 -134.25976562 88.76757812 C-129.89796055 95.87570491 -128.57994246 103.72535553 -127.11132812 111.80273438 C-126.9540625 112.61097656 -126.79679687 113.41921875 -126.63476562 114.25195312 C-126.50199219 114.97608398 -126.36921875 115.70021484 -126.23242188 116.44628906 C-125.16310598 119.80134676 -123.60067214 121.89503188 -120.58276367 123.72192383 C-118.14767366 124.77384253 -115.71168517 125.81785172 -113.25976562 126.83007812 C-112.41736328 127.20197266 -111.57496094 127.57386719 -110.70703125 127.95703125 C-105.98321501 129.94036927 -102.59062587 131.34851116 -97.57226562 129.51757812 C-94.58068331 127.86718941 -91.7670911 126.00646931 -88.94726562 124.08007812 C-87.45623542 123.07965322 -85.96408464 122.08089597 -84.47070312 121.08398438 C-83.81763184 120.63998291 -83.16456055 120.19598145 -82.49169922 119.73852539 C-78.10202541 116.94626404 -75.09119134 116.20009915 -69.82226562 116.14257812 C-68.65179688 116.11421875 -67.48132813 116.08585937 -66.27539062 116.05664062 C-56.43500934 117.28149821 -50.55958126 123.90355498 -43.93457031 130.63378906 C-42.32576768 132.2640294 -40.69670045 133.87178751 -39.06445312 135.47851562 C-31.9886062 142.53145105 -26.04641669 148.67321582 -25.88476562 159.26757812 C-26.12074498 167.16445864 -29.11993524 172.17794006 -33.57226562 178.51757812 C-34.91868005 180.46694095 -36.25259085 182.42501473 -37.57226562 184.39257812 C-38.17039062 185.235625 -38.76851563 186.07867187 -39.38476562 186.94726562 C-40.9507883 190.33688049 -40.56530397 191.94353473 -39.57226562 195.51757812 C-38.67833052 197.89694432 -37.71591479 200.25137519 -36.69726562 202.58007812 C-36.18421875 203.76730469 -35.67117188 204.95453125 -35.14257812 206.17773438 C-34.36527344 207.83095703 -34.36527344 207.83095703 -33.57226562 209.51757812 C-33.1675 210.44183594 -32.76273437 211.36609375 -32.34570312 212.31835938 C-29.80966858 215.46326566 -26.8634364 215.89331403 -23.07226562 216.64257812 C-21.6268153 216.96748639 -20.18150312 217.29300988 -18.73632812 217.61914062 C-18.02766602 217.77157227 -17.31900391 217.92400391 -16.58886719 218.08105469 C-0.56912313 221.54876684 -0.56912313 221.54876684 4.74023438 228.58007812 C8.3545216 234.87161515 7.96976939 241.38640906 8.42773438 248.51757812 C14.03773438 248.51757812 19.64773438 248.51757812 25.42773438 248.51757812 C26.58273437 246.02195313 27.73773438 243.52632812 28.92773438 240.95507812 C33.5722449 231.41642421 39.37443221 225.36739075 49.42773438 221.51757812 C55.12704552 219.5726882 60.40734119 219.11005255 66.36523438 218.89257812 C67.23986328 218.85390625 68.11449219 218.81523437 69.015625 218.77539062 C71.15268068 218.68196743 73.29017731 218.59872415 75.42773438 218.51757812 C75.24537231 217.4276355 75.24537231 217.4276355 75.05932617 216.31567383 C73.80412023 207.25140012 72.21447226 195.63988275 77.73962402 187.61126709 C81.71924785 182.96622264 86.35872061 178.99398949 90.99023438 175.01757812 C102.48033305 165.65287317 102.48033305 165.65287317 107.34960938 152.24804688 C107.70959215 145.28237239 106.85132769 138.32892462 105.42773438 131.51757812 C84.42944639 127.937002 84.42944639 127.937002 64.97314453 134.31542969 C57.30537932 140.49552411 50.70286708 148.04552176 44.60957336 155.75662231 C41.07748848 160.16155041 37.65744214 163.01539795 31.86523438 163.91601562 C26.65973552 163.86596275 22.84762396 163.56940665 18.42773438 160.51757812 C14.73717496 156.42803932 13.33020234 153.95035328 13.11132812 148.50976562 C13.04848633 147.03056641 13.04848633 147.03056641 12.984375 145.52148438 C12.94505859 144.48894531 12.90574219 143.45640625 12.86523438 142.39257812 C12.80045898 140.83216797 12.80045898 140.83216797 12.734375 139.24023438 C12.62810558 136.66615284 12.52606855 134.09197304 12.42773438 131.51757812 C11.72277832 131.50299561 11.01782227 131.48841309 10.29150391 131.47338867 C7.04474324 131.39813615 3.79892562 131.30173438 0.55273438 131.20507812 C-0.55585938 131.18251953 -1.66445313 131.15996094 -2.80664062 131.13671875 C-14.4791058 130.75908017 -23.7002628 128.40891052 -32.57226562 120.51757812 C-47.63647924 103.42365994 -42.12230366 76.76586644 -42.57226562 56.51757812 C-80.85226562 56.51757812 -119.13226563 56.51757812 -158.57226562 56.51757812 Z M8.42773438 264.51757812 C8.34523438 266.66257812 8.26273438 268.80757813 8.17773438 271.01757812 C7.63628712 278.46247794 6.40832293 283.45419544 1.17773438 288.83007812 C-5.93039241 293.1918832 -13.78004303 294.50990129 -21.85742188 295.97851562 C-27.8401069 297.00353566 -27.8401069 297.00353566 -32.57226562 300.51757812 C-33.75663305 303.00814982 -34.76279173 305.37662237 -35.69726562 307.95507812 C-38.4877024 315.37477797 -38.4877024 315.37477797 -39.81445312 317.61523438 C-41.02189822 320.64629499 -40.48876664 322.39331151 -39.57226562 325.51757812 C-37.94364445 328.52078186 -36.06075815 331.3233362 -34.13476562 334.14257812 C-33.13434072 335.63360833 -32.13558347 337.12575911 -31.13867188 338.61914062 C-30.69467041 339.27221191 -30.25066895 339.9252832 -29.79321289 340.59814453 C-27.00095154 344.98781834 -26.25478665 347.99865241 -26.19726562 353.26757812 C-26.16890625 354.43804687 -26.14054688 355.60851562 -26.11132812 356.81445312 C-27.33618571 366.65483441 -33.95824248 372.53026249 -40.68847656 379.15527344 C-42.3187169 380.76407607 -43.92647501 382.3931433 -45.53320312 384.02539062 C-52.58613855 391.10123755 -58.72790332 397.04342706 -69.32226562 397.20507812 C-77.21914614 396.96909877 -82.23262756 393.96990851 -88.57226562 389.51757812 C-90.52162845 388.1711637 -92.47970223 386.8372529 -94.44726562 385.51757812 C-95.2903125 384.91945313 -96.13335937 384.32132812 -97.00195312 383.70507812 C-100.93878193 381.88623929 -103.59891033 382.84755295 -107.59277344 384.20361328 C-109.83763793 385.03021847 -112.04765273 385.9196572 -114.25976562 386.83007812 C-115.01837891 387.12591797 -115.77699219 387.42175781 -116.55859375 387.7265625 C-117.28884766 388.02498047 -118.01910156 388.32339844 -118.77148438 388.63085938 C-119.42979248 388.89680908 -120.08810059 389.16275879 -120.76635742 389.43676758 C-123.87519257 391.2973615 -125.27518314 393.51172733 -126.29248047 396.95605469 C-126.45441895 397.84776367 -126.61635742 398.73947266 -126.78320312 399.65820312 C-126.9765625 400.64691406 -127.16992188 401.635625 -127.36914062 402.65429688 C-127.7514931 404.71331663 -128.12917602 406.77320953 -128.50195312 408.83398438 C-130.06189578 416.74658826 -132.20217189 422.88890501 -138.69726562 427.95507812 C-145.01798058 431.3902493 -151.48769087 431.06260543 -158.57226562 431.51757812 C-158.57226562 439.76757812 -158.57226562 448.01757812 -158.57226562 456.51757812 C-120.29226562 456.51757812 -82.01226562 456.51757812 -42.57226562 456.51757812 C-42.24226563 441.66757812 -41.91226563 426.81757813 -41.57226562 411.51757812 C-38.24196745 400.41658419 -34.99298041 393.16971851 -25.27148438 386.77148438 C-16.79751415 382.83495118 -8.71365659 382.01863841 0.55273438 381.83007812 C2.27363281 381.77883789 2.27363281 381.77883789 4.02929688 381.7265625 C6.82867812 381.64491388 9.62777887 381.5754972 12.42773438 381.51757812 C12.44175293 380.5650415 12.44175293 380.5650415 12.45605469 379.59326172 C12.5100217 376.69227013 12.59361564 373.79284569 12.67773438 370.89257812 C12.69191406 369.89355469 12.70609375 368.89453125 12.72070312 367.86523438 C12.92148958 361.80148334 13.41154837 358.1516389 17.42773438 353.51757812 C21.1036775 350.28720387 24.33587957 349.34792788 29.17773438 349.20507812 C30.4075 349.14900391 30.4075 349.14900391 31.66210938 349.09179688 C38.74851875 350.18278363 42.79445804 354.68325519 46.97070312 360.03320312 C59.27560028 375.54646106 59.27560028 375.54646106 76.75630188 383.16827393 C86.34529068 383.90314067 95.94775822 382.9902272 105.42773438 381.51757812 C107.35950536 372.27479693 109.12455208 361.54651237 105.42773438 352.51757812 C101.1294007 346.09659785 94.73386764 341.23169486 88.92242432 336.24224854 C81.01750181 329.36599226 75.0156552 324.04940358 74.10758972 313.19570923 C73.87070204 306.92958404 74.39428086 300.69432911 75.42773438 294.51757812 C74.19539062 294.49179687 72.96304688 294.46601563 71.69335938 294.43945312 C57.89610523 294.02338535 45.64418417 292.81527206 35.42773438 282.51757812 C30.95908438 277.04923014 28.10787929 271.01177542 25.42773438 264.51757812 C19.81773437 264.51757812 14.20773437 264.51757812 8.42773438 264.51757812 Z " fill="#000101" transform="translate(341.572265625,-0.517578125)"/>
<path d="M0 0 C0.78674103 -0.00807175 1.57348206 -0.01614349 2.38406372 -0.02445984 C4.05012814 -0.03829779 5.71622089 -0.04902125 7.38232422 -0.05688477 C9.9286065 -0.07410576 12.47359287 -0.11799292 15.01953125 -0.16210938 C16.63801128 -0.17223577 18.25650235 -0.18075204 19.875 -0.1875 C20.6355368 -0.20500809 21.39607361 -0.22251617 22.17965698 -0.24055481 C25.69798402 -0.22613849 27.6759837 -0.05920175 30.52368164 2.08911133 C32.45942482 4.77898461 32.9998499 6.98986942 33.6328125 10.23828125 C33.87257812 11.38425781 34.11234375 12.53023437 34.359375 13.7109375 C34.59398437 14.87496094 34.82859375 16.03898437 35.0703125 17.23828125 C37.00198378 26.2279822 38.58752369 33.50948942 46.6796875 38.9453125 C56.99766303 44.5257862 69.22471387 49.76360491 81.0703125 48.23828125 C86.01164393 46.63273823 90.17607702 43.90501986 94.375 40.90234375 C94.94621582 40.49491943 95.51743164 40.08749512 96.10595703 39.66772461 C97.75015147 38.47660853 99.37178412 37.25453482 100.9921875 36.03125 C104.60184789 33.92866863 105.98488836 33.31957406 110.0703125 34.23828125 C113.02056184 36.28322931 115.51139845 38.73034625 118.0703125 41.23828125 C118.8010498 41.91761719 119.53178711 42.59695312 120.28466797 43.296875 C122.55629458 45.41423406 124.78407614 47.57076839 127.0078125 49.73828125 C128.15733398 50.81916016 128.15733398 50.81916016 129.33007812 51.921875 C132.58645849 55.11191635 134.78097122 57.45043631 136.3671875 61.76953125 C135.95984112 66.52905209 134.06607836 69.37437842 131.3828125 73.23828125 C130.03520342 75.26260337 128.69126082 77.28913564 127.35400391 79.3203125 C126.54733924 80.52555359 125.71427443 81.7139447 124.84521484 82.875 C121.13847339 88.27732632 121.27741281 93.89018925 122.0703125 100.23828125 C123.10959096 104.33484814 124.57093838 108.15384527 126.1953125 112.05078125 C126.57429688 113.03498047 126.95328125 114.01917969 127.34375 115.03320312 C130.04851836 121.75455251 133.09800616 127.58532262 139.24609375 131.69140625 C145.41372997 133.99158502 151.59159185 135.19594335 158.09301758 136.11230469 C162.3806589 136.75365018 165.57857141 137.62446364 169.0703125 140.23828125 C170.63713739 143.37193104 170.27533594 146.72561532 170.30859375 150.16796875 C170.3166655 150.95470978 170.32473724 151.74145081 170.33305359 152.55203247 C170.34689154 154.21809689 170.357615 155.88418964 170.36547852 157.55029297 C170.38269951 160.09657525 170.42658667 162.64156162 170.47070312 165.1875 C170.48082952 166.80598003 170.48934579 168.4244711 170.49609375 170.04296875 C170.51360184 170.80350555 170.53110992 171.56404236 170.54914856 172.34762573 C170.53490076 175.82482379 170.35784155 177.84527397 168.27807617 180.68798828 C165.63225695 182.54588412 163.12056695 183.0864859 159.97265625 183.68359375 C156.25030244 184.39499919 152.56912306 185.23598995 148.8828125 186.11328125 C148.20573242 186.2628125 147.52865234 186.41234375 146.83105469 186.56640625 C140.16857305 188.16095801 135.22161369 191.10386039 131.36328125 196.84765625 C125.78280755 207.16563178 120.54498884 219.39268262 122.0703125 231.23828125 C123.67585552 236.17961268 126.40357389 240.34404577 129.40625 244.54296875 C129.81367432 245.11418457 130.22109863 245.68540039 130.64086914 246.27392578 C131.83198522 247.91812022 133.05405893 249.53975287 134.27734375 251.16015625 C136.37992512 254.76981664 136.98901969 256.15285711 136.0703125 260.23828125 C134.03469069 263.20057845 131.59472572 265.6893535 129.0703125 268.23828125 C128.36438965 268.96901855 127.6584668 269.69975586 126.93115234 270.45263672 C124.72692376 272.7147809 122.49698709 274.94825892 120.2578125 277.17578125 C119.49533203 277.94212891 118.73285156 278.70847656 117.94726562 279.49804688 C117.21830078 280.22572266 116.48933594 280.95339844 115.73828125 281.703125 C114.75251099 282.68720337 114.75251099 282.68720337 113.74682617 283.69116211 C111.62777685 285.64666168 110.36770287 286.18833783 107.51171875 286.66796875 C102.40848699 286.03078885 99.12358379 283.31421161 95.0078125 280.36328125 C93.43649378 279.25758595 91.86235258 278.15588877 90.28515625 277.05859375 C89.25056274 276.32020264 89.25056274 276.32020264 88.19506836 275.56689453 C82.31199495 271.8881992 76.85883678 271.39078579 70.0703125 272.23828125 C65.58980153 273.58835118 61.36339839 275.38772125 57.0703125 277.23828125 C55.27908179 277.88532275 53.48745281 278.53126341 51.6953125 279.17578125 C45.25560238 281.82066219 40.73609188 285.09441262 37.8203125 291.55078125 C35.88129791 296.96351985 34.99643882 302.58406172 34.19628906 308.26098633 C33.55494357 312.54862765 32.68413011 315.74654016 30.0703125 319.23828125 C26.93666271 320.80510614 23.58297843 320.44330469 20.140625 320.4765625 C19.35388397 320.48463425 18.56714294 320.49270599 17.75656128 320.50102234 C16.09049686 320.51486029 14.42440411 320.52558375 12.75830078 320.53344727 C10.2120185 320.55066826 7.66703213 320.59455542 5.12109375 320.63867188 C3.50261372 320.64879827 1.88412265 320.65731454 0.265625 320.6640625 C-0.4949118 320.68157059 -1.25544861 320.69907867 -2.03903198 320.71711731 C-5.51623004 320.70286951 -7.53668022 320.5258103 -10.37939453 318.44604492 C-12.23729037 315.8002257 -12.77789215 313.2885357 -13.375 310.140625 C-14.08640544 306.41827119 -14.9273962 302.73709181 -15.8046875 299.05078125 C-15.95421875 298.37370117 -16.10375 297.69662109 -16.2578125 296.99902344 C-17.92025285 290.05288437 -20.99022265 285.22363645 -26.9296875 281.23828125 C-29.36831225 280.12137473 -31.73939501 279.11311204 -34.2421875 278.17578125 C-34.9122583 277.91974121 -35.5823291 277.66370117 -36.27270508 277.39990234 C-36.9355249 277.1467627 -37.59834473 276.89362305 -38.28125 276.6328125 C-40.29412169 275.86343863 -42.30040353 275.07152103 -44.265625 274.1875 C-50.01519685 271.62809143 -55.78198708 271.17675285 -61.9296875 272.23828125 C-67.34885995 274.59052128 -72.05289024 277.92998475 -76.8828125 281.296875 C-77.82640625 281.93753906 -78.77 282.57820313 -79.7421875 283.23828125 C-80.57363281 283.83640625 -81.40507813 284.43453125 -82.26171875 285.05078125 C-85.95054319 286.69265919 -88.02635762 286.18058906 -91.9296875 285.23828125 C-94.81982422 283.04516602 -94.81982422 283.04516602 -97.609375 280.1796875 C-98.10760773 279.67533676 -98.60584045 279.17098602 -99.11917114 278.65135193 C-100.69565153 277.0480851 -102.24973297 275.42490378 -103.8046875 273.80078125 C-104.87105291 272.71287474 -105.93874961 271.62627148 -107.0078125 270.54101562 C-115.68885543 261.67232679 -115.68885543 261.67232679 -116.359375 257.6796875 C-115.7221951 252.57645574 -113.00561786 249.29155254 -110.0546875 245.17578125 C-108.9489922 243.60446253 -107.84729502 242.03032133 -106.75 240.453125 C-106.25773926 239.763396 -105.76547852 239.07366699 -105.25830078 238.36303711 C-101.57086269 232.46598204 -101.00274786 227.04121216 -101.9296875 220.23828125 C-103.42423836 214.72297932 -105.66188683 209.47209366 -107.9296875 204.23828125 C-108.35894531 203.22507812 -108.78820312 202.211875 -109.23046875 201.16796875 C-112.33732485 194.38753362 -115.99324903 190.30292152 -122.9296875 187.23828125 C-124.52028871 186.86065893 -126.12576769 186.54253012 -127.73828125 186.2734375 C-128.65029297 186.11294922 -129.56230469 185.95246094 -130.50195312 185.78710938 C-132.40767066 185.46364403 -134.31392343 185.14331593 -136.22070312 184.82617188 C-145.09473254 183.25427252 -145.09473254 183.25427252 -148.9296875 180.23828125 C-150.49651239 177.10463146 -150.13471094 173.75094718 -150.16796875 170.30859375 C-150.1760405 169.52185272 -150.18411224 168.73511169 -150.19242859 167.92453003 C-150.20626654 166.25846561 -150.21699 164.59237286 -150.22485352 162.92626953 C-150.24207451 160.37998725 -150.28596167 157.83500088 -150.33007812 155.2890625 C-150.34020452 153.67058247 -150.34872079 152.0520914 -150.35546875 150.43359375 C-150.37297684 149.67305695 -150.39048492 148.91252014 -150.40852356 148.12893677 C-150.39410724 144.61060973 -150.2271705 142.63261005 -148.07885742 139.78491211 C-145.38898414 137.84916893 -143.17809933 137.30874385 -139.9296875 136.67578125 C-138.78371094 136.43601563 -137.63773438 136.19625 -136.45703125 135.94921875 C-135.29300781 135.71460938 -134.12898438 135.48 -132.9296875 135.23828125 C-123.51852937 133.21604892 -116.78371034 131.36200201 -110.9296875 123.23828125 C-109.81278098 120.7996565 -108.80451829 118.42857374 -107.8671875 115.92578125 C-107.61114746 115.25571045 -107.35510742 114.58563965 -107.09130859 113.89526367 C-106.83816895 113.23244385 -106.5850293 112.56962402 -106.32421875 111.88671875 C-105.55484488 109.87384706 -104.76292728 107.86756522 -103.87890625 105.90234375 C-101.31949768 100.1527719 -100.8681591 94.38598167 -101.9296875 88.23828125 C-104.28192753 82.8191088 -107.621391 78.11507851 -110.98828125 73.28515625 C-111.62894531 72.3415625 -112.26960938 71.39796875 -112.9296875 70.42578125 C-113.5278125 69.59433594 -114.1259375 68.76289063 -114.7421875 67.90625 C-116.38174816 64.2226318 -115.85947936 62.13788304 -114.9296875 58.23828125 C-112.81591797 55.34814453 -112.81591797 55.34814453 -110.046875 52.55859375 C-109.55438263 52.06036102 -109.06189026 51.5621283 -108.55447388 51.04879761 C-107.51437963 50.00463993 -106.46674726 48.96794255 -105.41210938 47.93847656 C-103.80873645 46.36724903 -102.23992634 44.76654866 -100.671875 43.16015625 C-99.65295975 42.1452062 -98.63218463 41.13211915 -97.609375 40.12109375 C-96.22854736 38.75041748 -96.22854736 38.75041748 -94.81982422 37.35205078 C-91.37938299 34.83580309 -89.16590342 34.32947121 -84.9296875 34.23828125 C-82.77734375 34.97924805 -82.77734375 34.97924805 -80.9921875 36.1875 C-80.32445313 36.62384766 -79.65671875 37.06019531 -78.96875 37.50976562 C-78.29585938 37.97705078 -77.62296875 38.44433594 -76.9296875 38.92578125 C-74.90536538 40.27339033 -72.87883311 41.61733293 -70.84765625 42.95458984 C-69.64241516 43.76125451 -68.45402405 44.59431932 -67.29296875 45.46337891 C-61.89064243 49.17012036 -56.2777795 49.03118094 -49.9296875 48.23828125 C-45.83312061 47.19900279 -42.01412348 45.73765537 -38.1171875 44.11328125 C-37.13298828 43.73429687 -36.14878906 43.3553125 -35.13476562 42.96484375 C-28.03091224 40.10615024 -22.42747576 36.97958047 -18.1171875 30.5234375 C-16.15985379 25.10857681 -15.39294661 19.51618775 -14.46875 13.84960938 C-12.94277651 5.07526178 -12.94277651 5.07526178 -9.9296875 1.23828125 C-6.79603771 -0.32854364 -3.44235343 0.03325781 0 0 Z " fill="#81DCFC" transform="translate(164.9296875,95.76171875)"/>
<path d="M0 0 C21.305874 18.34273753 34.64352024 40.850419 39.98242188 68.34863281 C40.27052734 69.73308594 40.27052734 69.73308594 40.56445312 71.14550781 C44.33961147 100.07662785 37.03533559 129.36497444 19.33886719 152.63867188 C0.16784626 176.80602799 -26.09140376 192.4805256 -56.82788086 196.14355469 C-85.6459111 198.84253399 -114.2765479 191.72817056 -136.88085938 173.17675781 C-137.58597656 172.57347656 -138.29109375 171.97019531 -139.01757812 171.34863281 C-139.81550781 170.68347656 -140.6134375 170.01832031 -141.43554688 169.33300781 C-163.0111017 150.73454505 -177.0720641 124.11292816 -179.22460938 95.60693359 C-180.84123184 62.66825078 -170.52305295 33.98751894 -148.51757812 9.57519531 C-132.4935617 -7.11648846 -132.4935617 -7.11648846 -124.51757812 -7.33886719 C-121.01757812 -6.65136719 -121.01757812 -6.65136719 -118.89257812 -5.52636719 C-116.84224598 -4.32449497 -116.84224598 -4.32449497 -113.76757812 -5.52636719 C-112.86007813 -5.89761719 -111.95257813 -6.26886719 -111.01757812 -6.65136719 C-109.35505329 -4.98884235 -109.53225714 -2.85310378 -109.22070312 -0.56933594 C-109.06947998 0.49776611 -108.91825684 1.56486816 -108.76245117 2.66430664 C-108.59914307 3.81825928 -108.43583496 4.97221191 -108.26757812 6.16113281 C-104.41702182 32.05122023 -97.79469696 59.76759901 -84.01757812 82.34863281 C-84.00823242 81.64254883 -83.99888672 80.93646484 -83.98925781 80.20898438 C-83.93552154 77.00482736 -83.85188056 73.80212524 -83.76757812 70.59863281 C-83.75339844 69.48746094 -83.73921875 68.37628906 -83.72460938 67.23144531 C-83.69238281 66.16152344 -83.66015625 65.09160156 -83.62695312 63.98925781 C-83.60600586 63.00473633 -83.58505859 62.02021484 -83.56347656 61.00585938 C-82.87098649 57.63508032 -81.7187931 56.42807238 -79.01757812 54.34863281 C-75.27747822 53.81433283 -73.06200087 53.69278924 -69.82324219 55.7265625 C-66.98111166 59.85372338 -67.52449524 63.91066821 -67.62695312 68.80175781 C-67.63261292 69.81711609 -67.63827271 70.83247437 -67.644104 71.87860107 C-67.66648059 75.11909282 -67.71668058 78.35847571 -67.76757812 81.59863281 C-67.78764141 83.7965335 -67.80589248 85.99445154 -67.82226562 88.19238281 C-67.86634942 93.57817731 -67.9332744 98.96332584 -68.01757812 104.34863281 C-67.05335938 104.30222656 -66.08914062 104.25582031 -65.09570312 104.20800781 C-63.83242187 104.17191406 -62.56914062 104.13582031 -61.26757812 104.09863281 C-60.01460938 104.05222656 -58.76164062 104.00582031 -57.47070312 103.95800781 C-54.01757812 104.34863281 -54.01757812 104.34863281 -51.56835938 106.14550781 C-50.01757812 108.34863281 -50.01757812 108.34863281 -49.95507812 111.84863281 C-51.19722329 115.94040511 -52.46130394 117.09343455 -56.01757812 119.34863281 C-56.67757812 119.67863281 -57.33757812 120.00863281 -58.01757812 120.34863281 C-47.00570343 132.65018652 -35.57265179 143.60134007 -22.45507812 153.66113281 C-21.58560547 154.33837402 -20.71613281 155.01561523 -19.8203125 155.71337891 C-18.99724609 156.33164551 -18.17417969 156.94991211 -17.32617188 157.58691406 C-16.59197021 158.14419189 -15.85776855 158.70146973 -15.10131836 159.27563477 C-13.08899164 160.55290263 -13.08899164 160.55290263 -10.88964844 160.12402344 C2.74773629 154.47557092 12.21304165 136.27619795 17.98242188 123.34863281 C22.76229995 111.5539765 25.36904086 99.8859659 25.29492188 87.16113281 C25.29000732 86.15518066 25.28509277 85.14922852 25.2800293 84.11279297 C24.94133008 62.41867419 17.07979601 41.89772418 2.98242188 25.34863281 C2.38945312 24.61128906 1.79648438 23.87394531 1.18554688 23.11425781 C-12.53248036 6.67529956 -34.39278244 -4.35675352 -55.51367188 -7.37402344 C-60.24623941 -7.74861908 -64.95881367 -7.86295095 -69.70507812 -7.90136719 C-70.58437988 -7.91079346 -71.46368164 -7.92021973 -72.36962891 -7.92993164 C-77.48271431 -7.90445754 -82.133957 -7.37798423 -87.09399414 -6.12280273 C-89.91672 -5.43100382 -92.13738215 -5.19315419 -95.01757812 -5.65136719 C-98.38102302 -8.13739167 -99.81815562 -9.56562242 -100.58007812 -13.71386719 C-99.8743321 -17.39942975 -99.05697808 -18.46923389 -96.01757812 -20.65136719 C-65.31093241 -32.31989256 -24.43349547 -19.99856769 0 0 Z " fill="#FC81B2" transform="translate(244.017578125,169.6513671875)"/>
<path d="M0 0 C1.26020966 -0.00860046 2.52041931 -0.01720093 3.81881714 -0.02606201 C5.21827656 -0.03049721 6.61773643 -0.03479557 8.01719666 -0.03897095 C9.48908176 -0.04687362 10.96096493 -0.05514267 12.43284607 -0.06375122 C17.27075859 -0.08996075 22.10867971 -0.10528165 26.94664001 -0.11953735 C28.61399783 -0.1248982 30.28135559 -0.13027572 31.9487133 -0.13566971 C38.88784187 -0.15730031 45.82696812 -0.1760344 52.76612186 -0.1872921 C62.69842927 -0.20351311 72.63034435 -0.23664361 82.56250387 -0.29369295 C89.55204709 -0.33246502 96.5414857 -0.35193359 103.53113359 -0.35721266 C107.70219907 -0.36085731 111.87284599 -0.37278276 116.04379463 -0.4053154 C119.97311194 -0.43552307 123.90176028 -0.44166324 127.83116913 -0.42993164 C129.26701039 -0.42971193 130.70288382 -0.43793129 132.13861656 -0.45558548 C140.73466748 -0.55546104 147.85710621 -0.0512436 154.97398376 5.15390015 C161.46726231 11.90643713 161.66090961 19.25400222 161.66172791 28.19711304 C161.64376196 33.11835273 161.64376196 33.11835273 163.24351501 37.69296265 C165.13288495 39.50565173 165.13288495 39.50565173 168.97398376 40.15390015 C168.97398376 46.75390015 168.97398376 53.35390015 168.97398376 60.15390015 C166.99398376 61.14390015 165.01398376 62.13390015 162.97398376 63.15390015 C161.84761324 65.4066412 161.83664075 66.68946491 161.79820251 69.1890564 C161.30448577 88.24766667 161.30448577 88.24766667 155.62242126 94.68515015 C149.92445928 99.92605636 143.96048866 101.53358316 136.43736267 101.47518921 C135.71927933 101.47413681 135.00119598 101.47308441 134.26135254 101.47200012 C132.71396308 101.46841378 131.16657742 101.45832781 129.61926651 101.44232941 C127.16280657 101.41916933 124.70724081 101.41823057 122.25068665 101.4236145 C115.27085383 101.43623453 108.29150116 101.41938285 101.31187439 101.3633728 C97.03055174 101.3305787 92.75033285 101.33203528 88.46895981 101.35439301 C86.84636487 101.35613203 85.22369933 101.34500192 83.60129166 101.32028961 C75.02214564 101.1927076 68.26785231 101.12765124 61.64468384 107.34739685 C60.8176873 108.24161598 60.8176873 108.24161598 59.97398376 109.15390015 C59.41884598 109.71001984 58.86370819 110.26613953 58.29174805 110.83911133 C56.85663767 112.29519997 55.50739362 113.80276951 54.16148376 115.34140015 C48.32168603 121.84568043 42.20317278 128.02411308 35.97398376 134.15390015 C34.98398376 133.82390015 33.99398376 133.49390015 32.97398376 133.15390015 C32.95996521 132.15592407 32.95996521 132.15592407 32.94566345 131.13778687 C32.89172357 128.10075996 32.80812315 125.06523436 32.72398376 122.02890015 C32.70980408 120.9821814 32.69562439 119.93546265 32.68101501 118.85702515 C32.48704923 112.72770635 32.21334055 108.73902007 27.97398376 104.15390015 C24.53051707 101.90672791 21.57641332 101.9016151 17.52085876 101.88046265 C16.2614447 101.85983765 15.00203064 101.83921265 13.70445251 101.81796265 C11.06649572 101.79207494 8.42845302 101.77375405 5.79039001 101.76327515 C-2.84541686 101.60481997 -8.67520511 101.04201781 -15.30335999 95.1187439 C-16.12513733 94.11520874 -16.12513733 94.11520874 -16.96351624 93.09140015 C-17.81236389 92.0839978 -17.81236389 92.0839978 -18.67835999 91.0562439 C-21.35007843 87.28486163 -21.17268127 83.81583837 -21.21888733 79.3309021 C-21.22706482 78.64105728 -21.23524231 77.95121246 -21.2436676 77.24046326 C-21.2684753 74.95771134 -21.28502823 72.67502156 -21.29945374 70.3921814 C-21.30477741 69.61057333 -21.31010109 68.82896526 -21.31558609 68.0236721 C-21.3423013 63.88423011 -21.36167886 59.74481806 -21.37611389 55.60531616 C-21.38943625 52.18805066 -21.41725868 48.77138468 -21.45814514 45.3543396 C-21.50760258 41.22054232 -21.53225104 37.08728749 -21.53934097 32.95320702 C-21.54603195 31.38279485 -21.56119778 29.81239376 -21.58523178 28.24215126 C-21.79875198 13.44429076 -21.79875198 13.44429076 -17.45536804 7.61329651 C-12.26366531 2.31246571 -7.41031824 0.03761483 0 0 Z " fill="#FB985A" transform="translate(336.02601623535156,14.846099853515625)"/>
<path d="M0 0 C3.88280691 1.58906523 6.3183269 4.08934703 9.24609375 7.05078125 C9.73908463 7.54660202 10.2320755 8.04242279 10.74000549 8.55326843 C12.31061396 10.13502731 13.87413286 11.72358685 15.4375 13.3125 C16.48456052 14.36960193 17.53208213 15.42624736 18.58007812 16.48242188 C20.51778796 18.43640678 22.45218063 20.39346913 24.38452148 22.3527832 C25.24762939 23.22636475 26.1107373 24.09994629 27 25 C27.87406494 25.89614014 28.74812988 26.79228027 29.64868164 27.71557617 C33.87017198 31.81696596 36.19707709 32.24967891 41.97485352 32.25537109 C43.03406258 32.26080177 43.03406258 32.26080177 44.1146698 32.26634216 C45.64844534 32.27323477 47.1822454 32.27574185 48.71603584 32.27439499 C51.15134795 32.27342859 53.58621998 32.28638821 56.02146912 32.30337524 C62.94567374 32.34959171 69.86983594 32.37421925 76.79418945 32.38085938 C81.0318542 32.38590264 85.2690644 32.41030158 89.50657463 32.44618607 C91.11432083 32.4559266 92.72213006 32.45834767 94.32989693 32.45301437 C113.92831076 32.39109793 113.92831076 32.39109793 120.92555237 38.74984741 C125.26668079 43.40310895 127.23158197 47.97670644 127.2734375 54.37890625 C127.304375 55.88420898 127.304375 55.88420898 127.3359375 57.41992188 C127.36202669 59.51879723 127.38022742 61.61778514 127.390625 63.71679688 C127.41382813 64.71904297 127.43703125 65.72128906 127.4609375 66.75390625 C127.46915527 67.66470947 127.47737305 68.5755127 127.48583984 69.51391602 C128.15774076 72.76271329 129.44711122 73.94397248 132 76 C132.99 76.33 133.98 76.66 135 77 C135 83.6 135 90.2 135 97 C132.525 97.99 132.525 97.99 130 99 C127.05182952 101.94817048 127.70771081 105.17284337 127.625 109.125 C127.30838887 116.60903217 126.68600986 122.12137204 121.35546875 127.73046875 C116.21487247 132.44548189 111.76042905 134.2459447 104.72001648 134.26742554 C103.45416718 134.27595551 102.18831787 134.28448547 100.8841095 134.29327393 C99.48873889 134.29257496 98.09336838 134.29165193 96.69799805 134.29052734 C95.22257142 134.29651439 93.74714791 134.30332034 92.27172852 134.31088257 C88.26953217 134.32853291 84.26742139 134.33323757 80.26518989 134.33451414 C77.76266388 134.33593696 75.26015955 134.34020907 72.75763893 134.34550858 C64.02111051 134.36400637 55.28464306 134.37217959 46.5480957 134.37060547 C38.41431453 134.36940446 30.28079889 134.39049934 22.14708489 134.4220928 C15.15582145 134.44827744 8.1646446 134.45897183 1.17333251 134.45769465 C-2.99867382 134.45718561 -7.17044417 134.46283616 -11.3424015 134.48405075 C-15.26841135 134.50346994 -19.19396104 134.50353281 -23.11998749 134.48901749 C-24.55665194 134.48693275 -25.99334548 134.49161031 -27.42996025 134.5037384 C-43.05632365 134.62705927 -43.05632365 134.62705927 -49.50853443 128.58807945 C-54.18689958 123.36495646 -55.24862316 118.78831226 -55.29052734 111.91821289 C-55.29724457 111.22486343 -55.30396179 110.53151398 -55.31088257 109.81715393 C-55.32980945 107.53558091 -55.33378377 105.25430278 -55.3359375 102.97265625 C-55.34236826 101.37991721 -55.34909683 99.78717934 -55.35610962 98.19444275 C-55.36806845 94.85982525 -55.3717918 91.52531125 -55.37060547 88.19067383 C-55.37040216 83.92571826 -55.3977225 79.66142813 -55.43214989 75.39663029 C-55.45442591 72.10828117 -55.45844283 68.82009217 -55.45738602 65.53167534 C-55.45974022 63.95964702 -55.46855362 62.38761417 -55.48405075 60.81566048 C-55.50372975 58.61369761 -55.49786725 56.41316944 -55.48583984 54.21118164 C-55.48868988 52.96051407 -55.49153992 51.7098465 -55.49447632 50.42127991 C-54.69359957 44.88001653 -51.62825029 41.16317369 -47.375 37.6875 C-46.48941406 36.95080078 -46.48941406 36.95080078 -45.5859375 36.19921875 C-42.2246263 33.65753762 -39.68827663 33.87621624 -35.5234375 33.859375 C-34.21246094 33.84003906 -32.90148437 33.82070313 -31.55078125 33.80078125 C-29.4705854 33.77196426 -27.39144271 33.75000389 -25.31103516 33.74951172 C-14.78347283 33.78387471 -14.78347283 33.78387471 -5.40478516 29.55566406 C-2.28139603 26.09681187 -1.74839068 22.2515741 -1.62109375 17.734375 C-1.58693359 16.76242187 -1.55277344 15.79046875 -1.51757812 14.7890625 C-1.49115234 13.78617187 -1.46472656 12.78328125 -1.4375 11.75 C-1.3778476 9.74466393 -1.31426594 7.73943952 -1.24609375 5.734375 C-1.22216553 4.84975586 -1.1982373 3.96513672 -1.17358398 3.05371094 C-1 1 -1 1 0 0 Z " fill="#A09ADB" transform="translate(370,363)"/>
<path d="M0 0 C0.86625 0.825 1.7325 1.65 2.625 2.5 C4.90702868 4.3777532 5.8121583 4.97078018 8.8125 5.4375 C11.33249491 5.09161835 13.61195441 4.6092269 16.06640625 3.9921875 C21.11535562 2.86116969 25.96426913 2.65396076 31.125 2.6875 C32.04369873 2.69313965 32.96239746 2.6987793 33.90893555 2.70458984 C55.5105199 3.08531753 76.50416553 11.05743382 93 25 C93.81339844 25.66773438 94.62679687 26.33546875 95.46484375 27.0234375 C112.86799804 41.87913469 124.56454394 64.21281209 127 87 C128.78548639 118.37444148 119.05152751 143.37725887 98.2109375 166.73828125 C95.90690306 169.09523521 93.75003108 171.17387526 91 173 C87.97850516 172.60579291 86.01101 171.51028894 83.6015625 169.69921875 C82.96436279 169.22282959 82.32716309 168.74644043 81.6706543 168.25561523 C80.99558838 167.73813721 80.32052246 167.22065918 79.625 166.6875 C78.56696167 165.88324585 78.56696167 165.88324585 77.48754883 165.06274414 C50.39812652 144.27445805 50.39812652 144.27445805 42 131 C42.94875 130.566875 43.8975 130.13375 44.875 129.6875 C48.20041937 128.20697799 48.20041937 128.20697799 50 125 C50.33966102 122.28271182 50.46432061 120.69987012 48.9296875 118.38671875 C46.01609156 116.29294029 43.35215865 116.47486966 39.8125 116.3125 C38.54019531 116.24675781 37.26789063 116.18101562 35.95703125 116.11328125 C34.98121094 116.07589844 34.00539062 116.03851563 33 116 C32.99413376 115.43037033 32.98826752 114.86074066 32.98222351 114.27384949 C32.91836036 108.35272804 32.83395962 102.43215371 32.73754883 96.51147461 C32.70426492 94.30093594 32.67624388 92.09031157 32.65356445 89.87963867 C32.62008241 86.70454334 32.56776948 83.53023583 32.51171875 80.35546875 C32.50532883 79.36475876 32.4989389 78.37404877 32.49235535 77.35331726 C32.47256119 76.43258926 32.45276703 75.51186127 32.43237305 74.56323242 C32.41571846 73.34744759 32.41571846 73.34744759 32.39872742 72.10710144 C31.89958839 69.46936822 31.15162748 68.57485337 29 67 C24.42006746 66.42805038 24.42006746 66.42805038 20.31323242 68.1496582 C18.45247631 70.77145976 18.56621146 72.78533006 18.48828125 75.98046875 C18.45283203 77.14384766 18.41738281 78.30722656 18.38085938 79.50585938 C18.35830078 80.72080078 18.33574219 81.93574219 18.3125 83.1875 C18.27833984 84.41404297 18.24417969 85.64058594 18.20898438 86.90429688 C18.1264059 89.93610678 18.05728631 92.96762379 18 96 C-0.99374388 71.25187971 -6.87526169 34.10267696 -10 4 C-6.7 2.68 -3.4 1.36 0 0 Z " fill="#FD95BF" transform="translate(143,158)"/>
<path d="M0 0 C0.78674103 -0.00807175 1.57348206 -0.01614349 2.38406372 -0.02445984 C4.05012814 -0.03829779 5.71622089 -0.04902125 7.38232422 -0.05688477 C9.9286065 -0.07410576 12.47359287 -0.11799292 15.01953125 -0.16210938 C16.63801128 -0.17223577 18.25650235 -0.18075204 19.875 -0.1875 C20.6355368 -0.20500809 21.39607361 -0.22251617 22.17965698 -0.24055481 C25.69798402 -0.22613849 27.6759837 -0.05920175 30.52368164 2.08911133 C32.45942482 4.77898461 32.9998499 6.98986942 33.6328125 10.23828125 C33.87257813 11.38425781 34.11234375 12.53023437 34.359375 13.7109375 C34.59398437 14.87496094 34.82859375 16.03898437 35.0703125 17.23828125 C37.00198378 26.2279822 38.58752369 33.50948942 46.6796875 38.9453125 C56.99766303 44.5257862 69.22471387 49.76360491 81.0703125 48.23828125 C86.01164393 46.63273823 90.17607702 43.90501986 94.375 40.90234375 C95.23182373 40.29120728 95.23182373 40.29120728 96.10595703 39.66772461 C97.75015147 38.47660853 99.37178412 37.25453482 100.9921875 36.03125 C104.60184789 33.92866863 105.98488836 33.31957406 110.0703125 34.23828125 C113.02056184 36.28322931 115.51139845 38.73034625 118.0703125 41.23828125 C119.16641846 42.25728516 119.16641846 42.25728516 120.28466797 43.296875 C122.55629458 45.41423406 124.78407614 47.57076839 127.0078125 49.73828125 C127.77416016 50.45886719 128.54050781 51.17945313 129.33007812 51.921875 C132.58645849 55.11191635 134.78097122 57.45043631 136.3671875 61.76953125 C135.95984112 66.52905209 134.06607836 69.37437842 131.3828125 73.23828125 C130.03520342 75.26260337 128.69126082 77.28913564 127.35400391 79.3203125 C126.54733924 80.52555359 125.71427443 81.7139447 124.84521484 82.875 C121.13847339 88.27732632 121.27741281 93.89018925 122.0703125 100.23828125 C123.10959096 104.33484814 124.57093838 108.15384527 126.1953125 112.05078125 C126.57429687 113.03498047 126.95328125 114.01917969 127.34375 115.03320312 C130.04851836 121.75455251 133.09800616 127.58532262 139.24609375 131.69140625 C145.41372997 133.99158502 151.59159185 135.19594335 158.09301758 136.11230469 C162.3806589 136.75365018 165.57857141 137.62446364 169.0703125 140.23828125 C170.63713739 143.37193104 170.27533594 146.72561532 170.30859375 150.16796875 C170.3166655 150.95470978 170.32473724 151.74145081 170.33305359 152.55203247 C170.34689154 154.21809689 170.357615 155.88418964 170.36547852 157.55029297 C170.38269951 160.09657525 170.42658667 162.64156162 170.47070312 165.1875 C170.48082952 166.80598003 170.48934579 168.4244711 170.49609375 170.04296875 C170.51360184 170.80350555 170.53110992 171.56404236 170.54914856 172.34762573 C170.53490076 175.82482379 170.35784155 177.84527397 168.27807617 180.68798828 C165.63225695 182.54588412 163.12056695 183.0864859 159.97265625 183.68359375 C156.25030244 184.39499919 152.56912306 185.23598995 148.8828125 186.11328125 C147.86719238 186.33757812 147.86719238 186.33757812 146.83105469 186.56640625 C140.16857305 188.16095801 135.22161369 191.10386039 131.36328125 196.84765625 C125.78280755 207.16563178 120.54498884 219.39268262 122.0703125 231.23828125 C123.67585552 236.17961268 126.40357389 240.34404577 129.40625 244.54296875 C129.81367432 245.11418457 130.22109863 245.68540039 130.64086914 246.27392578 C131.83198522 247.91812022 133.05405893 249.53975287 134.27734375 251.16015625 C136.29029148 254.61593579 136.68874415 256.31258468 136.0703125 260.23828125 C134.41143934 262.91420164 132.24376166 264.97427171 130.0703125 267.23828125 C123.75497987 265.26015427 117.71954871 262.9106105 111.6953125 260.17578125 C110.42059082 259.60065796 110.42059082 259.60065796 109.12011719 259.01391602 C99.9060638 254.79801995 90.97633411 250.0640554 82.0703125 245.23828125 C83.57043647 242.07737856 85.05184543 240.1158994 87.6328125 237.73828125 C107.58142739 218.18647425 118.72198156 191.01613684 119.54296875 163.29443359 C119.82355368 131.93405718 108.49563935 104.7204678 86.84375 82.01953125 C66.72596905 61.8450805 38.94766428 50.93347536 10.6328125 50.86328125 C-5.80765921 50.55105903 -5.80765921 50.55105903 -19.9296875 57.23828125 C-20.0946875 58.20765625 -20.2596875 59.17703125 -20.4296875 60.17578125 C-21.9296875 63.23828125 -21.9296875 63.23828125 -24.26367188 64.19360352 C-25.17439453 64.43651123 -26.08511719 64.67941895 -27.0234375 64.9296875 C-27.93802734 65.18049072 -28.85261719 65.43129395 -29.79492188 65.68969727 C-30.49939453 65.87072998 -31.20386719 66.0517627 -31.9296875 66.23828125 C-31.98767874 62.46751236 -32.02328056 58.69685791 -32.0546875 54.92578125 C-32.07144531 53.85392578 -32.08820313 52.78207031 -32.10546875 51.67773438 C-32.11191406 50.64970703 -32.11835938 49.62167969 -32.125 48.5625 C-32.13547363 47.61463623 -32.14594727 46.66677246 -32.15673828 45.69018555 C-31.9296875 43.23828125 -31.9296875 43.23828125 -29.9296875 40.23828125 C-28.1775131 39.26485103 -26.4252492 38.29157995 -24.671875 37.3203125 C-19.13013118 33.87846713 -17.42348592 28.23796344 -15.9296875 22.23828125 C-15.25832608 18.8071733 -14.64352918 15.36570657 -14.10717773 11.91088867 C-13.41441697 7.7578715 -12.43735828 4.64154874 -9.9296875 1.23828125 C-6.79603771 -0.32854364 -3.44235343 0.03325781 0 0 Z " fill="#A2E5FD" transform="translate(164.9296875,95.76171875)"/>
<path d="M0 0 C21.305874 18.34273753 34.64352024 40.850419 39.98242188 68.34863281 C40.27052734 69.73308594 40.27052734 69.73308594 40.56445312 71.14550781 C44.33961147 100.07662785 37.03533559 129.36497444 19.33886719 152.63867188 C0.16784626 176.80602799 -26.09140376 192.4805256 -56.82788086 196.14355469 C-85.6459111 198.84253399 -114.2765479 191.72817056 -136.88085938 173.17675781 C-137.58597656 172.57347656 -138.29109375 171.97019531 -139.01757812 171.34863281 C-139.81550781 170.68347656 -140.6134375 170.01832031 -141.43554688 169.33300781 C-163.0111017 150.73454505 -177.0720641 124.11292816 -179.22460938 95.60693359 C-180.84123184 62.66825078 -170.52305295 33.98751894 -148.51757812 9.57519531 C-132.62059934 -6.98415759 -132.62059934 -6.98415759 -124.51757812 -7.52636719 C-121.01757812 -6.65136719 -121.01757812 -6.65136719 -118.45507812 -4.52636719 C-117.01757812 -1.65136719 -117.01757812 -1.65136719 -116.83007812 1.28613281 C-118.5303155 5.67095551 -121.32141074 7.57147619 -125.01757812 10.34863281 C-135.85671364 18.59851849 -144.2195958 27.48902028 -151.01757812 39.34863281 C-151.54222656 40.26128906 -152.066875 41.17394531 -152.60742188 42.11425781 C-155.71584278 47.90398836 -157.95191811 53.76046409 -159.83007812 60.03613281 C-160.03713379 60.72465332 -160.24418945 61.41317383 -160.45751953 62.12255859 C-167.21758811 86.03623 -162.38683512 111.60980991 -151.08007812 133.28613281 C-148.16354112 138.35408933 -144.7747983 142.87842203 -141.01757812 147.34863281 C-140.12619141 148.45851563 -140.12619141 148.45851563 -139.21679688 149.59082031 C-124.88293186 166.74397555 -102.13975961 177.95323737 -80.01757812 180.34863281 C-52.47579359 182.13276145 -26.85384084 174.91507742 -5.67333984 156.67163086 C8.16279948 144.31271148 16.34771717 128.75086763 21.98242188 111.34863281 C22.32402344 110.32769531 22.665625 109.30675781 23.01757812 108.25488281 C29.81032147 84.24332494 23.61175648 58.57618441 11.79882812 37.34863281 C9.18775799 33.03615569 6.24717675 29.18117114 2.98242188 25.34863281 C2.38945312 24.61128906 1.79648438 23.87394531 1.18554688 23.11425781 C-12.53248036 6.67529956 -34.39278244 -4.35675352 -55.51367188 -7.37402344 C-60.24623941 -7.74861908 -64.95881367 -7.86295095 -69.70507812 -7.90136719 C-70.58437988 -7.91079346 -71.46368164 -7.92021973 -72.36962891 -7.92993164 C-77.48271431 -7.90445754 -82.133957 -7.37798423 -87.09399414 -6.12280273 C-89.91672 -5.43100382 -92.13738215 -5.19315419 -95.01757812 -5.65136719 C-98.38102302 -8.13739167 -99.81815562 -9.56562242 -100.58007812 -13.71386719 C-99.8743321 -17.39942975 -99.05697808 -18.46923389 -96.01757812 -20.65136719 C-65.31093241 -32.31989256 -24.43349547 -19.99856769 0 0 Z " fill="#030304" transform="translate(244.017578125,169.6513671875)"/>
<path d="M0 0 C11.17057177 -0.11615928 22.34099842 -0.2048498 33.51205254 -0.25906086 C38.69998476 -0.28508752 43.88750192 -0.32035846 49.07519531 -0.37719727 C54.08730235 -0.43176483 59.09901167 -0.4614726 64.11139297 -0.47438622 C66.017877 -0.48358182 67.92434073 -0.50153845 69.83065414 -0.52865028 C89.78667505 -0.80102439 89.78667505 -0.80102439 97 5 C103.46842204 11.79637131 103.68692313 19.07035416 103.68774414 28.04321289 C103.6697782 32.96445258 103.6697782 32.96445258 105.26953125 37.5390625 C107.15890119 39.35175158 107.15890119 39.35175158 111 40 C111 46.6 111 53.2 111 60 C109.02 60.99 107.04 61.98 105 63 C103.87362947 65.25274106 103.86265699 66.53556476 103.82421875 69.03515625 C103.32688758 88.23329143 103.32688758 88.23329143 97.578125 94.56640625 C92.39719421 99.25327921 87.2798586 100.32923235 80.49609375 100.4765625 C79.77696304 100.49270599 79.05783234 100.50884949 78.31690979 100.52548218 C76.79657466 100.55305678 75.2761185 100.57454882 73.75561523 100.59033203 C72.22236045 100.61326222 70.68925846 100.65399726 69.15698242 100.71337891 C57.82178998 101.15165506 50.92863743 99.65972342 42 92 C41.05048462 91.227771 41.05048462 91.227771 40.08178711 90.43994141 C38.58925555 89.18213627 37.16610099 87.84327294 35.75 86.5 C35.25967285 86.03787109 34.7693457 85.57574219 34.26416016 85.09960938 C32.83269565 83.74363317 31.41599672 82.37212076 30 81 C28.78183594 79.824375 28.78183594 79.824375 27.5390625 78.625 C21.04412574 72.24730036 19.33801726 67.92061952 19.12890625 58.8269043 C19.34091831 50.97436028 22.32214488 45.87393478 27.08666992 39.78466797 C29.70417968 36.39331157 31.36591301 34.00929164 31.53125 29.63671875 C31.3559375 28.43660156 31.180625 27.23648438 31 26 C27.50875983 23.67250655 26.10777749 23.49700684 22 24 C17.90321344 26.97948113 15.54699029 31.69934426 13 36 C9.2331227 34.74437423 8.60455354 33.32478146 6.4375 30.0625 C3.952948 26.33955173 3.952948 26.33955173 1 23 C-0.41525466 18.34479128 -0.1119147 13.50353296 -0.0625 8.6875 C-0.05798828 7.85154297 -0.05347656 7.01558594 -0.04882812 6.15429688 C-0.03710548 4.10283351 -0.01917203 2.05140727 0 0 Z " fill="#FDA874" transform="translate(394,15)"/>
<path d="M0 0 C8.85824612 -0.09293193 17.71632283 -0.16388192 26.57495117 -0.20724869 C30.68897802 -0.2280691 34.80266983 -0.25628411 38.91650391 -0.30175781 C42.89117701 -0.34541523 46.8655291 -0.36917877 50.84042358 -0.37950897 C52.35221404 -0.38686487 53.86398814 -0.401229 55.37564087 -0.42292023 C70.10040168 -0.62569007 70.10040168 -0.62569007 77 4 C79.05859375 6.03515625 79.05859375 6.03515625 80.4375 8.0625 C80.91058594 8.73410156 81.38367188 9.40570313 81.87109375 10.09765625 C83.88874477 13.49764257 84.12885644 16.3185426 84.17578125 20.18359375 C84.21155273 21.69856445 84.21155273 21.69856445 84.24804688 23.24414062 C84.29093269 25.36893764 84.32222837 27.49400095 84.34179688 29.61914062 C84.36951172 30.63041016 84.39722656 31.64167969 84.42578125 32.68359375 C84.44036377 33.60712646 84.45494629 34.53065918 84.4699707 35.48217773 C85.15707033 38.74613834 86.43070753 39.93389586 89 42 C90.485 42.495 90.485 42.495 92 43 C92 49.6 92 56.2 92 63 C90.35 63.66 88.7 64.32 87 65 C84.05182952 67.94817048 84.70771081 71.17284337 84.625 75.125 C84.30838887 82.60903217 83.68600986 88.12137204 78.35546875 93.73046875 C73.4294186 98.24869775 68.67143857 100.81567489 61.76953125 100.62109375 C46.02351949 97.0899007 30.80066972 80.94958706 21 69 C20.3915625 68.36707031 19.783125 67.73414063 19.15625 67.08203125 C14.15569081 61.17335164 14.3125 54.78067416 14.3125 47.35791016 C14.28214795 40.83601387 13.65415361 35.11523152 9.24609375 29.94140625 C8.64925781 29.48636719 8.05242187 29.03132813 7.4375 28.5625 C6.83808594 28.08941406 6.23867188 27.61632812 5.62109375 27.12890625 C3.9886535 25.93426653 3.9886535 25.93426653 2 25 C1.3671875 22.734375 1.3671875 22.734375 0.875 19.75 C0.70742188 18.79609375 0.53984375 17.8421875 0.3671875 16.859375 C0.02721122 13.28600728 -0.03610008 9.84533639 -0.02294922 6.25878906 C-0.01963593 5.08705139 -0.01632263 3.91531372 -0.01290894 2.70806885 C-0.00864899 1.81440613 -0.00438904 0.92074341 0 0 Z " fill="#B1ADE3" transform="translate(413,397)"/>
<path d="M0 0 C1.60791161 -0.02893593 1.60791161 -0.02893593 3.24830627 -0.05845642 C8.1728281 -0.11622713 13.09720195 -0.16551507 18.02197266 -0.19628906 C20.61455637 -0.21783318 23.20706806 -0.25189258 25.79931641 -0.29882812 C29.54224058 -0.36598614 33.283657 -0.39332058 37.02709961 -0.41235352 C38.75259789 -0.4540995 38.75259789 -0.4540995 40.51295471 -0.49668884 C48.2395031 -0.47709357 53.0310586 1.07265143 58.86694336 6.20874023 C63.00088174 10.71112233 65.22552437 15.58911588 65.55444336 21.70874023 C65.12352939 28.47887744 62.8152587 34.28464104 57.96459961 39.09545898 C50.82689627 44.75356163 44.14697029 45.51783473 35.28100586 45.50952148 C34.26525482 45.51380661 33.24950378 45.51809174 32.20297241 45.52250671 C30.05972029 45.52823535 27.91644873 45.52876111 25.77319336 45.52441406 C22.50983176 45.52125754 19.24738032 45.54472034 15.98413086 45.57006836 C13.89559033 45.57234197 11.80704738 45.57304456 9.71850586 45.57202148 C8.75055084 45.58123123 7.78259583 45.59044098 6.78530884 45.59992981 C-0.91987105 45.54781939 -7.82753356 44.26997374 -13.74633789 38.83764648 C-18.73939852 32.97255836 -21.02178137 26.55984843 -20.60961914 18.88061523 C-19.42807213 12.25620413 -16.22834147 7.75983753 -10.94555664 3.70874023 C-7.06571062 1.03810053 -4.74426689 0.07966615 0 0 Z " fill="#89DB9B" transform="translate(402.133056640625,233.791259765625)"/>
<path d="M0 0 C5.16389333 0.81535158 7.19643435 3.74681749 10.20922852 7.7512207 C12.0441329 10.31470127 13.84022741 12.90138626 15.625 15.5 C16.23666016 16.38107422 16.84832031 17.26214844 17.47851562 18.16992188 C20.55140156 22.60484374 23.58849202 27.06069739 26.5625 31.5625 C26.5718457 30.76553711 26.58119141 29.96857422 26.59082031 29.14746094 C26.64451498 25.53517825 26.72816608 21.92419179 26.8125 18.3125 C26.82667969 17.05824219 26.84085938 15.80398437 26.85546875 14.51171875 C26.88769531 13.30644531 26.91992188 12.10117188 26.953125 10.859375 C26.97407227 9.74916992 26.99501953 8.63896484 27.01660156 7.49511719 C27.68111091 3.92531115 28.68552778 2.72312804 31.5625 0.5625 C35.0625 0.0625 35.0625 0.0625 38.5625 0.5625 C41.22710776 2.61670713 42.41385749 3.80746323 43.07043457 7.14257812 C43.07361694 8.11646484 43.07679932 9.09035156 43.08007812 10.09375 C43.09268677 11.20169922 43.10529541 12.30964844 43.11828613 13.45117188 C43.11018921 14.64291016 43.10209229 15.83464844 43.09375 17.0625 C43.0975769 18.29033203 43.10140381 19.51816406 43.10534668 20.78320312 C43.10806842 23.37891459 43.10068911 25.97465336 43.08398438 28.5703125 C43.06258075 32.54749599 43.08377963 36.52287282 43.109375 40.5 C43.10673177 43.02083733 43.10160691 45.54167353 43.09375 48.0625 C43.10184692 49.25423828 43.10994385 50.44597656 43.11828613 51.67382812 C43.10567749 52.78177734 43.09306885 53.88972656 43.08007812 55.03125 C43.07530457 56.49208008 43.07530457 56.49208008 43.07043457 57.98242188 C42.41445206 61.31451665 41.21295762 62.49761724 38.5625 64.5625 C35.1875 65.25 35.1875 65.25 31.5625 64.5625 C26.06091182 58.86244183 21.73070423 52.26108705 17.25 45.75 C16.15848633 44.17702148 16.15848633 44.17702148 15.04492188 42.57226562 C9.71584821 34.86919643 9.71584821 34.86919643 8.5625 32.5625 C8.5531543 33.38975586 8.54380859 34.21701172 8.53417969 35.06933594 C8.48049681 38.81766415 8.3968429 42.56474162 8.3125 46.3125 C8.29123047 48.26542969 8.29123047 48.26542969 8.26953125 50.2578125 C8.23730469 51.50820313 8.20507812 52.75859375 8.171875 54.046875 C8.15092773 55.19897461 8.12998047 56.35107422 8.10839844 57.53808594 C7.45221887 61.1734851 6.49503971 62.37327309 3.5625 64.5625 C0.0625 65.125 0.0625 65.125 -3.4375 64.5625 C-6.18021032 62.35197107 -7.30007638 60.50703889 -7.80883789 57.01022339 C-7.9687968 53.72802815 -7.9915944 50.46964964 -7.96875 47.18359375 C-7.9725769 45.97937271 -7.97640381 44.77515167 -7.98034668 43.53443909 C-7.98306582 40.99178225 -7.97570462 38.44909745 -7.95898438 35.90649414 C-7.93755829 32.010598 -7.95879787 28.11654227 -7.984375 24.22070312 C-7.98173209 21.74999592 -7.97660789 19.27928987 -7.96875 16.80859375 C-7.97684692 15.6418663 -7.98494385 14.47513885 -7.99328613 13.27305603 C-7.98067749 12.18835526 -7.96806885 11.10365448 -7.95507812 9.98608398 C-7.95189575 9.03297836 -7.94871338 8.07987274 -7.94543457 7.09788513 C-7.00835027 2.42037399 -4.55121638 0.7447445 0 0 Z " fill="#030102" transform="translate(103.4375,223.4375)"/>
<path d="M0 0 C1.55074219 -0.00773438 1.55074219 -0.00773438 3.1328125 -0.015625 C4.20789063 -0.00015625 5.28296875 0.0153125 6.390625 0.03125 C7.45023438 0.01578125 8.50984375 0.0003125 9.6015625 -0.015625 C17.75569197 0.02484214 23.0916179 1.62751692 29.390625 6.78125 C34.08705309 12.52132878 36.36230233 17.55497614 36.02734375 25.07421875 C35.01439562 31.51002051 31.64317815 36.43825197 26.640625 40.53125 C21.32437595 43.61675925 16.67523354 45.6745566 10.453125 45.59375 C9.55207031 45.58472656 8.65101563 45.57570313 7.72265625 45.56640625 C7.03558594 45.55480469 6.34851563 45.54320312 5.640625 45.53125 C5.68703125 46.48386719 5.7334375 47.43648438 5.78125 48.41796875 C5.81734375 49.67222656 5.8534375 50.92648437 5.890625 52.21875 C5.93703125 53.46011719 5.9834375 54.70148438 6.03125 55.98046875 C5.5760512 60.11822586 4.64322227 61.69901286 1.640625 64.53125 C-1.859375 65.09375 -1.859375 65.09375 -5.359375 64.53125 C-8.02149442 62.47420501 -9.21073089 61.28629492 -9.86730957 57.95117188 C-9.87049194 56.97728516 -9.87367432 56.00339844 -9.87695312 55 C-9.88956177 53.89205078 -9.90217041 52.78410156 -9.91516113 51.64257812 C-9.90706421 50.45083984 -9.89896729 49.25910156 -9.890625 48.03125 C-9.8944519 46.80341797 -9.89827881 45.57558594 -9.90222168 44.31054688 C-9.90494342 41.71483541 -9.89756411 39.11909664 -9.88085938 36.5234375 C-9.85945575 32.54625401 -9.88065463 28.57087718 -9.90625 24.59375 C-9.90360677 22.07291267 -9.89848191 19.55207647 -9.890625 17.03125 C-9.89872192 15.83951172 -9.90681885 14.64777344 -9.91516113 13.41992188 C-9.90255249 12.31197266 -9.88994385 11.20402344 -9.87695312 10.0625 C-9.87377075 9.08861328 -9.87058838 8.11472656 -9.86730957 7.11132812 C-8.78006415 1.58861264 -5.2360191 0.02530351 0 0 Z " fill="#040203" transform="translate(218.359375,223.46875)"/>
<path d="M0 0 C5.24572486 4.5404985 8.51787136 9.2531969 9.23388672 16.30273438 C9.37713008 18.97593074 9.4204499 21.63563478 9.4375 24.3125 C9.47037109 25.21162109 9.50324219 26.11074219 9.53710938 27.03710938 C9.59098941 33.81129961 7.96823659 38.4987818 4 44 C1.5625 46.375 1.5625 46.375 -1 48 C-1.86625 48.5775 -2.7325 49.155 -3.625 49.75 C-10.17728756 52.17677317 -17.70576226 51.97818974 -24.15234375 49.171875 C-29.98852588 45.47027957 -34.04560014 39.57924776 -36 33 C-36.45090734 29.88445001 -36.52509231 26.83250691 -36.5 23.6875 C-36.49355469 22.84807861 -36.48710937 22.00865723 -36.48046875 21.14379883 C-36.25330454 13.43441331 -34.77346965 7.61370581 -29.0625 2.14453125 C-19.76024002 -5.27261165 -10.3516182 -6.02582002 0 0 Z " fill="#020203" transform="translate(419,423)"/>
<path d="M0 0 C0.71636627 -0.00524185 1.43273254 -0.0104837 2.17080688 -0.0158844 C3.68547267 -0.02230309 5.20018832 -0.0209695 6.71484375 -0.01245117 C9.02434953 -0.00396034 11.33136487 -0.03266753 13.640625 -0.06445312 C15.11458259 -0.06606586 16.58854455 -0.06548623 18.0625 -0.0625 C18.74911713 -0.07373398 19.43573425 -0.08496796 20.14315796 -0.09654236 C23.54652356 -0.04747131 25.64973316 0.42561772 28.63916016 2.08959961 C30.6640625 4.43359375 30.6640625 4.43359375 31.23632812 7.25048828 C30.5162899 11.25554732 28.77421107 14.07291735 26.5078125 17.36328125 C26.08608765 17.99847687 25.66436279 18.63367249 25.2298584 19.28811646 C23.88732422 21.3038115 22.52617072 23.30608778 21.1640625 25.30859375 C20.24743703 26.67754199 19.33205804 28.04732573 18.41796875 29.41796875 C16.18098502 32.76635743 13.92722158 36.10284704 11.6640625 39.43359375 C12.70046875 39.459375 13.736875 39.48515625 14.8046875 39.51171875 C16.17452051 39.56801326 17.54431055 39.6253603 18.9140625 39.68359375 C19.59597656 39.69777344 20.27789062 39.71195313 20.98046875 39.7265625 C24.39729118 39.89242767 26.36272975 40.20435017 29.11328125 42.296875 C30.6640625 44.43359375 30.6640625 44.43359375 31.2265625 47.37109375 C30.46368953 51.52451323 28.928761 52.80530414 25.6640625 55.43359375 C22.23828125 56.09643555 22.23828125 56.09643555 18.3515625 56.1328125 C17.66022217 56.1399678 16.96888184 56.14712311 16.2565918 56.15449524 C14.80095706 56.16224868 13.34520539 56.15730969 11.88964844 56.14038086 C9.66898356 56.1211364 7.45457104 56.160566 5.234375 56.20507812 C3.81510046 56.2053685 2.39582022 56.20222809 0.9765625 56.1953125 C-0.30605469 56.19490967 -1.58867187 56.19450684 -2.91015625 56.1940918 C-6.29967692 55.44164333 -7.09553407 55.14399494 -9.35546875 52.76098633 C-11.3359375 49.43359375 -11.3359375 49.43359375 -11.40063477 46.46435547 C-10.15642364 42.92259054 -8.42566807 40.00172571 -6.30078125 36.94140625 C-5.70361046 36.05520096 -5.70361046 36.05520096 -5.09437561 35.15109253 C-3.83039471 33.28015227 -2.55226588 31.41940823 -1.2734375 29.55859375 C-0.40985145 28.28580426 0.45278907 27.01237269 1.31445312 25.73828125 C3.42012232 22.62918296 5.53852888 19.5291419 7.6640625 16.43359375 C6.69331787 16.39258545 5.72257324 16.35157715 4.72241211 16.30932617 C2.81987671 16.20648315 2.81987671 16.20648315 0.87890625 16.1015625 C-0.38058838 16.0399292 -1.64008301 15.9782959 -2.93774414 15.91479492 C-6.2725156 15.44257461 -7.55815821 15.19426849 -9.7734375 12.74609375 C-11.57508133 8.92660883 -11.74095985 7.3852191 -10.3359375 3.43359375 C-7.75770123 -0.41665604 -4.23235579 -0.01798941 0 0 Z " fill="#050302" transform="translate(451.3359375,37.56640625)"/>
<path d="M0 0 C4.16203123 3.34992758 6.99914 7.62731829 10 12 C10.53625 11.319375 11.0725 10.63875 11.625 9.9375 C12.40875 8.968125 13.1925 7.99875 14 7 C14.67095703 6.06414063 14.67095703 6.06414063 15.35546875 5.109375 C18.02254097 1.59141379 19.14614686 0.16193767 23.625 -0.6875 C27 0 27 0 29.4375 1.625 C31.46832515 4.71185423 31.34821976 6.34369256 31 10 C29.57421875 12.81640625 29.57421875 12.81640625 27.6875 15.5625 C27.07261719 16.47128906 26.45773437 17.38007812 25.82421875 18.31640625 C24.62588355 20.07926766 23.42035511 21.83726484 22.20703125 23.58984375 C20.78559638 25.84944182 20.78559638 25.84944182 21.29541016 27.94799805 C22.65546419 31.90893157 25.43913718 35.28967766 27.84960938 38.69140625 C30.46600927 42.56351011 31.73184186 45.16708205 31 50 C28.70985284 53.0099077 27.20864386 54.69783903 23.5 55.625 C17.64919752 54.16229938 14.83592323 48.43149067 11.91796875 43.57421875 C11.61503906 43.05472656 11.31210937 42.53523438 11 42 C8.07380123 44.77814704 5.8400219 47.88778187 3.5 51.16015625 C1.47084256 53.64904467 -0.24285324 54.88351588 -3.4375 55.375 C-6 55 -6 55 -8.3125 53.4375 C-10.68067492 50.0168029 -10.45547402 48.12433813 -10 44 C-8.198775 40.3331401 -5.75109185 37.09878365 -3.37890625 33.78515625 C-0.56523691 29.92132151 -0.56523691 29.92132151 -0.4375 25.37109375 C-2.26972624 22.59069043 -4.15914833 19.87557316 -6.125 17.1875 C-10.57999685 10.61030465 -10.57999685 10.61030465 -10.75 6.4375 C-10 3 -10 3 -8.375 1 C-5.24440659 -0.3181446 -3.3696628 -0.55014903 0 0 Z " fill="#050301" transform="translate(340,38)"/>
<path d="M0 0 C3.94350211 3.28319478 6.42544555 7.62325744 9 12 C9.66 12.33 10.32 12.66 11 13 C11.3403125 11.9790625 11.3403125 11.9790625 11.6875 10.9375 C13.50647997 6.86644958 15.89057968 2.05471016 20 0 C23.19200721 -0.27756584 25.4070908 -0.24964598 28.375 1 C30.44013465 3.54170418 30.49429167 5.56796122 30.42773438 8.78369141 C29.61535401 12.99304584 26.68427477 15.91335 24.0625 19.1875 C18.22515326 27.03198123 16.74119686 33.29154921 17.18579102 43.0065918 C17.43658673 49.42807138 17.43658673 49.42807138 14.65625 53.0703125 C12 55 12 55 9.4375 55.5625 C6.26189019 54.82966697 5.04727693 53.48597913 3 51 C1.82013278 48.64026557 1.9678815 47.45818692 2.10546875 44.84375 C2.41513968 31.62569074 -0.2822327 24.16237017 -8.41015625 13.78515625 C-10.4510461 11.08649243 -10.98367258 10.11687715 -11.46875 6.64453125 C-11 4 -11 4 -9.4375 1.625 C-5.95444023 -0.69703985 -4.10709477 -0.77893177 0 0 Z " fill="#040201" transform="translate(396,38)"/>
<path d="M0 0 C3.5 0.5 3.5 0.5 5.69433594 1.87792969 C8.53646647 6.00509057 7.99308289 10.0620354 7.890625 14.953125 C7.88496521 15.96848328 7.87930542 16.98384155 7.87347412 18.02996826 C7.85109753 21.27046001 7.80089755 24.5098429 7.75 27.75 C7.72993671 29.94790069 7.71168565 32.14581872 7.6953125 34.34375 C7.65122871 39.7295445 7.58430373 45.11469303 7.5 50.5 C8.94632813 50.43039062 8.94632813 50.43039062 10.421875 50.359375 C11.68515625 50.32328125 12.9484375 50.2871875 14.25 50.25 C16.12945312 50.18039062 16.12945312 50.18039062 18.046875 50.109375 C21.5 50.5 21.5 50.5 23.95703125 52.29296875 C25.5 54.5 25.5 54.5 25.4375 58.0625 C24.227163 62.50040235 24.227163 62.50040235 21.5 64.5 C17.38596238 65.17167961 13.22525487 65.00933877 9.0625 65 C7.91716797 65.02835937 6.77183594 65.05671875 5.59179688 65.0859375 C4.49029297 65.08851563 3.38878906 65.09109375 2.25390625 65.09375 C1.24658447 65.10083984 0.2392627 65.10792969 -0.79858398 65.11523438 C-3.5 64.5 -3.5 64.5 -5.82641602 62.73657227 C-8.44533445 57.67180178 -8.07032187 52.7413926 -8.03125 47.12109375 C-8.0350769 45.91687271 -8.03890381 44.71265167 -8.04284668 43.47193909 C-8.04556582 40.92928225 -8.03820462 38.38659745 -8.02148438 35.84399414 C-8.00005829 31.948098 -8.02129787 28.05404227 -8.046875 24.15820312 C-8.04423209 21.68749592 -8.03910789 19.21678987 -8.03125 16.74609375 C-8.03934692 15.5793663 -8.04744385 14.41263885 -8.05578613 13.21055603 C-8.04317749 12.12585526 -8.03056885 11.04115448 -8.01757812 9.92358398 C-8.01439575 8.97047836 -8.01121338 8.01737274 -8.00793457 7.03538513 C-7.06174839 2.31244144 -4.60817722 0.65831103 0 0 Z " fill="#040203" transform="translate(168.5,223.5)"/>
<path d="M0 0 C1.11246094 -0.0309375 2.22492188 -0.061875 3.37109375 -0.09375 C7.70087353 0.71179042 8.91050299 1.98909244 11.5625 5.5 C12.28795827 8.88772452 12.23997502 12.20238883 12.19140625 15.65625 C12.19381821 16.63613892 12.19623016 17.61602783 12.19871521 18.62561035 C12.19773755 20.69331924 12.18436325 22.76105457 12.15942383 24.82861328 C12.12511383 27.98951333 12.13876988 31.14761709 12.15820312 34.30859375 C12.15130445 36.32032437 12.14163187 38.3320478 12.12890625 40.34375 C12.13386612 41.28657837 12.13882599 42.22940674 12.14393616 43.20080566 C12.06828296 47.42583842 11.9193211 49.89195114 9.74584961 53.59570312 C7.5625 55.5 7.5625 55.5 4.0625 56.125 C0.5625 55.5 0.5625 55.5 -1.63183594 53.4699707 C-3.91867616 49.70855759 -3.94713436 46.61992229 -3.828125 42.35546875 C-3.82246521 41.58568192 -3.81680542 40.81589508 -3.81097412 40.02278137 C-3.78867872 37.57704057 -3.73849875 35.1327939 -3.6875 32.6875 C-3.667426 31.02410978 -3.6491768 29.36069647 -3.6328125 27.69726562 C-3.58883684 23.63093942 -3.51985979 19.56572256 -3.4375 15.5 C-4.22382813 15.36851562 -5.01015625 15.23703125 -5.8203125 15.1015625 C-8.4375 14.5 -8.4375 14.5 -10.3125 12.875 C-11.96318093 9.39022914 -11.4366864 7.16368347 -10.4375 3.5 C-7.23162623 0.24119907 -4.46510964 0.04129581 0 0 Z " fill="#020102" transform="translate(450.4375,418.5)"/>
<path d="M0 0 C1.11246094 -0.0103125 2.22492188 -0.020625 3.37109375 -0.03125 C7.43359422 0.64500467 8.80901677 1.41095037 11.5625 4.5 C12.31459942 8.0045801 12.23901661 11.45864633 12.19140625 15.03125 C12.19381821 16.05931763 12.19623016 17.08738525 12.19871521 18.14660645 C12.19773639 20.31864278 12.18433455 22.49070395 12.15942383 24.66259766 C12.12512206 27.98816636 12.13876213 31.3110775 12.15820312 34.63671875 C12.1513046 36.74740715 12.14163216 38.85808869 12.12890625 40.96875 C12.13386612 41.96362427 12.13882599 42.95849854 12.14393616 43.98352051 C12.02690352 50.8398095 12.02690352 50.8398095 9.71459961 54.12695312 C6.75129838 56.0175494 5.01172822 56.07487137 1.5625 55.5 C-0.60058594 53.98535156 -0.60058594 53.98535156 -2.4375 51.5 C-2.7866005 48.6103488 -2.9056562 46.1140729 -2.828125 43.234375 C-2.82246521 42.44097717 -2.81680542 41.64757935 -2.81097412 40.83013916 C-2.78863147 38.30280527 -2.73844176 35.77690335 -2.6875 33.25 C-2.66743214 31.53387468 -2.64918187 29.81772708 -2.6328125 28.1015625 C-2.58877395 23.9004922 -2.51976326 19.70048865 -2.4375 15.5 C-3.38625 15.396875 -4.335 15.29375 -5.3125 15.1875 C-8.4375 14.5 -8.4375 14.5 -10.4375 11.5 C-11.10299578 5.39962201 -11.10299578 5.39962201 -8.81640625 2.30859375 C-5.72625949 -0.04072965 -3.85023908 -0.03560915 0 0 Z " fill="#010102" transform="translate(360.4375,418.5)"/>
<path d="M0 0 C4.61027791 1.36600827 4.61027791 1.36600827 6.375 4 C6.70048821 6.90593527 6.83930195 9.53558016 6.8125 12.4375 C6.83248047 13.20126953 6.85246094 13.96503906 6.87304688 14.75195312 C6.86979546 18.48783183 6.80286999 20.40855984 4.56640625 23.5 C1.32442195 25.71911225 -0.7955253 25.61545129 -4.625 25 C-7.5997149 22.1849299 -8.54933587 20.48007588 -9.19140625 16.40625 C-9.19011719 15.1171875 -9.18882812 13.828125 -9.1875 12.5 C-9.20941406 11.2109375 -9.23132813 9.921875 -9.25390625 8.59375 C-8.27282824 2.98758993 -5.8066357 0 0 0 Z " fill="#9C97D6" transform="translate(406.625,434)"/>
<path d="M0 0 C10.14938489 -0.48330404 10.14938489 -0.48330404 13.75 1.5625 C15.55433184 5.08094709 15.02389008 7.24573639 14 11 C12.796875 12.703125 12.796875 12.703125 11 14 C7.29631297 14.40199208 3.73655831 14.13187853 0 14 C0 9.38 0 4.76 0 0 Z " fill="#FA94BD" transform="translate(224,239)"/>
<path d="M0 0 C2 1 2 1 3 3 C3.51981506 6.56444611 3.63102777 9.73794446 2 13 C-1.26205554 14.63102777 -4.43555389 14.51981506 -8 14 C-10 13 -10 13 -11 11 C-11.51981506 7.43555389 -11.63102777 4.26205554 -10 1 C-6.73794446 -0.63102777 -3.56444611 -0.51981506 0 0 Z " fill="#030504" transform="translate(446,249)"/>
<path d="M0 0 C2 1 2 1 3 3 C3.51981506 6.56444611 3.63102777 9.73794446 2 13 C-1.26205554 14.63102777 -4.43555389 14.51981506 -8 14 C-10 13 -10 13 -11 11 C-11.51981506 7.43555389 -11.63102777 4.26205554 -10 1 C-6.73794446 -0.63102777 -3.56444611 -0.51981506 0 0 Z " fill="#030504" transform="translate(411,249)"/>
</svg>
